<?xml version="1.0" encoding="UTF-8" standalone="no"?>
<!DOCTYPE svg PUBLIC "-//W3C//DTD SVG 1.1//EN" "http://www.w3.org/Graphics/SVG/1.1/DTD/svg11.dtd">
<svg version="1.1" xmlns="http://www.w3.org/2000/svg" xmlns:xlink="http://www.w3.org/1999/xlink" preserveAspectRatio="xMidYMid meet" viewBox="0 0 300 300" width="300" height="300"><defs><path d="M55.21 28.48L55.21 33.76L34.31 33.76L34.31 56.5L28.6 56.5L28.6 33.76L8.13 33.76L8.13 28.48L28.6 28.48L28.6 6.5L34.31 6.5L34.31 28.48L55.21 28.48Z" id="anjN6A6Q"></path><path d="M190 31.5L240 31.5" id="b2I79FWqon"></path><path d="M56.04 216.48L56.04 221.76L35.14 221.76L35.14 244.5L29.43 244.5L29.43 221.76L8.96 221.76L8.96 216.48L29.43 216.48L29.43 194.5L35.14 194.5L35.14 216.48L56.04 216.48Z" id="b2LVdnmFD1"></path><path d="M187.5 219L237.5 219" id="f4IukKLWpw"></path></defs><g><g><g><use xlink:href="#anjN6A6Q" opacity="1" fill="#a07b50" fill-opacity="1"></use><g><use xlink:href="#anjN6A6Q" opacity="1" fill-opacity="0" stroke="#000000" stroke-width="1" stroke-opacity="0"></use></g></g><g><g><use xlink:href="#b2I79FWqon" opacity="1" fill-opacity="0" stroke="#a07b50" stroke-width="1" stroke-opacity="1"></use></g></g><g><use xlink:href="#b2LVdnmFD1" opacity="1" fill="#ffffff" fill-opacity="1"></use></g><g><g><use xlink:href="#f4IukKLWpw" opacity="1" fill-opacity="0" stroke="#ffffff" stroke-width="1" stroke-opacity="1"></use></g></g></g></g></svg>