<?xml version="1.0" encoding="UTF-8" standalone="no"?>
<!DOCTYPE svg PUBLIC "-//W3C//DTD SVG 1.1//EN" "http://www.w3.org/Graphics/SVG/1.1/DTD/svg11.dtd">
<svg version="1.1" xmlns="http://www.w3.org/2000/svg" xmlns:xlink="http://www.w3.org/1999/xlink" preserveAspectRatio="xMidYMid meet" viewBox="0 0 250 250" width="250" height="250"><defs><path d="M244.59 35.86C240.4 31.67 240.96 32.35 246.01 25.1C249.08 20.69 250.31 17.99 249.92 16.84C249.56 15.74 247.3 16.03 247.3 16.03C246.55 16.03 240.54 16.07 239.79 16.07C239.79 16.07 239.23 15.99 238.81 16.26C238.41 16.52 238.15 17.13 238.15 17.13C238.15 17.13 236.96 20.55 235.37 23.45C232.02 29.58 230.68 29.91 230.14 29.53C228.87 28.64 229.18 25.96 229.18 24.06C229.18 18.12 230.02 15.64 227.56 15C226.74 14.79 226.14 14.65 224.05 14.62C221.36 14.59 219.09 14.63 217.81 15.31C216.95 15.76 216.29 16.77 216.7 16.83C217.19 16.9 218.32 17.15 218.91 18.03C219.69 19.16 219.66 21.7 219.66 21.7C219.66 21.7 220.1 28.69 218.62 29.56C217.61 30.16 216.22 28.94 213.23 23.38C211.7 20.53 210.55 17.38 210.55 17.38C210.55 17.38 210.33 16.79 209.93 16.48C209.45 16.1 208.77 15.98 208.77 15.98C208.06 15.98 202.34 16.02 201.63 16.02C201.63 16.02 200.56 16.06 200.16 16.56C199.81 17.01 200.14 17.93 200.14 17.93C200.14 17.93 205.73 32.05 212.06 39.16C217.87 45.68 224.47 45.26 224.47 45.26C224.76 45.26 227.15 45.26 227.45 45.26C227.45 45.26 228.36 45.15 228.82 44.61C229.24 44.12 229.22 43.2 229.22 43.2C229.22 43.2 229.17 38.87 231.03 38.23C232.86 37.61 235.22 42.41 237.72 44.26C239.6 45.66 241.04 45.36 241.04 45.36C241.71 45.35 247.05 45.27 247.72 45.26C247.72 45.26 251.21 45.02 249.55 42.06C249.42 41.82 248.59 39.87 244.59 35.86Z" id="a7r5AOg1c"></path><path d="M49.78 24.85C48.77 25.47 45.62 26.15 43.89 25.51C43.8 25.1 43.71 24.71 43.61 24.36C42.29 19.5 37.76 15.59 33.01 16.06C33.4 15.91 33.79 15.76 34.17 15.63C34.7 15.45 37.76 14.95 37.28 13.86C36.87 12.91 33.13 14.58 32.42 14.8C33.35 14.45 34.89 13.85 35.06 12.78C33.63 12.98 32.23 13.65 31.15 14.63C31.54 14.21 31.84 13.7 31.9 13.15C28.09 15.58 25.87 20.48 24.07 25.23C22.66 23.86 21.41 22.78 20.29 22.18C17.14 20.49 13.37 18.73 7.46 16.54C7.28 18.49 8.43 21.09 11.74 22.82C11.02 22.73 9.71 22.94 8.66 23.19C9.09 25.43 10.48 27.28 14.26 28.17C12.53 28.29 11.64 28.68 10.83 29.53C11.62 31.08 13.54 32.92 16.99 32.54C13.15 34.19 15.42 37.26 18.54 36.8C13.22 42.3 4.82 41.9 0 37.3C12.59 54.45 39.96 47.44 44.03 30.92C47.09 30.94 48.89 29.86 50 28.66C48.24 28.96 45.69 28.65 44.33 28.09C47.14 27.86 49.05 26.58 49.78 24.85Z" id="ckaPEi1Bl"></path><path d="M119.37 16.57C119.04 16.57 117.36 16.57 114.33 16.57L114.33 24.99L119.37 24.99L119.37 50L129.73 50L129.73 24.99C133.9 24.99 136.22 24.99 136.68 24.99C136.68 24.99 137.33 20.95 137.65 16.54C136.75 16.54 129.77 16.54 129.77 16.54C129.77 16.54 129.77 11.64 129.77 10.78C129.77 9.92 130.9 8.76 132.02 8.76C133.13 8.76 135.48 8.76 137.66 8.76C137.66 7.62 137.66 3.66 137.66 0C134.75 0 131.45 0 129.99 0C119.12 0 119.37 8.43 119.37 9.68C119.37 10.94 119.37 15.19 119.37 16.57Z" id="g3Ujua9ESM"></path><path d="M49.78 124.85C48.77 125.47 45.62 126.15 43.89 125.51C43.8 125.1 43.71 124.71 43.61 124.36C42.29 119.5 37.76 115.59 33.01 116.06C33.4 115.91 33.79 115.76 34.17 115.63C34.7 115.45 37.76 114.95 37.28 113.86C36.87 112.91 33.13 114.58 32.42 114.8C33.35 114.45 34.89 113.85 35.06 112.78C33.63 112.98 32.23 113.65 31.15 114.63C31.54 114.21 31.84 113.7 31.9 113.15C28.09 115.58 25.87 120.48 24.07 125.23C22.66 123.86 21.41 122.78 20.29 122.18C17.14 120.49 13.37 118.73 7.46 116.54C7.28 118.49 8.43 121.09 11.74 122.82C11.02 122.73 9.71 122.94 8.66 123.19C9.09 125.43 10.48 127.28 14.26 128.17C12.53 128.29 11.64 128.68 10.83 129.53C11.62 131.08 13.54 132.92 16.99 132.54C13.15 134.19 15.42 137.26 18.54 136.8C13.22 142.3 4.82 141.9 0 137.3C12.59 154.45 39.96 147.44 44.03 130.92C47.09 130.94 48.89 129.86 50 128.66C48.24 128.96 45.69 128.65 44.33 128.09C47.14 127.86 49.05 126.58 49.78 124.85Z" id="d2TB6OZzHD"></path><path d="M118.59 116.57C118.25 116.57 116.57 116.57 113.54 116.57L113.54 124.99L118.59 124.99L118.59 150L128.94 150L128.94 124.99C133.12 124.99 135.43 124.99 135.9 124.99C135.9 124.99 136.55 120.95 136.86 116.54C135.96 116.54 128.98 116.54 128.98 116.54C128.98 116.54 128.98 111.64 128.98 110.78C128.98 109.92 130.11 108.76 131.23 108.76C132.34 108.76 134.7 108.76 136.87 108.76C136.87 107.62 136.87 103.66 136.87 100C133.97 100 130.66 100 129.2 100C118.33 100 118.59 108.43 118.59 109.68C118.59 110.94 118.59 115.19 118.59 116.57Z" id="c5zR1RUXxw"></path><path d="M244.59 135.86C240.4 131.67 240.96 132.35 246.01 125.1C249.08 120.69 250.31 117.99 249.92 116.84C249.56 115.74 247.3 116.03 247.3 116.03C246.55 116.03 240.54 116.07 239.79 116.07C239.79 116.07 239.23 115.99 238.81 116.26C238.41 116.52 238.15 117.13 238.15 117.13C238.15 117.13 236.96 120.55 235.37 123.45C232.02 129.58 230.68 129.91 230.14 129.53C228.87 128.64 229.18 125.96 229.18 124.06C229.18 118.12 230.02 115.64 227.56 115C226.74 114.79 226.14 114.65 224.05 114.62C221.36 114.59 219.09 114.63 217.81 115.31C216.95 115.76 216.29 116.77 216.7 116.83C217.19 116.9 218.32 117.15 218.91 118.03C219.69 119.16 219.66 121.7 219.66 121.7C219.66 121.7 220.1 128.69 218.62 129.56C217.61 130.16 216.22 128.94 213.23 123.38C211.7 120.53 210.55 117.38 210.55 117.38C210.55 117.38 210.33 116.79 209.93 116.48C209.45 116.1 208.77 115.98 208.77 115.98C208.06 115.98 202.34 116.02 201.63 116.02C201.63 116.02 200.56 116.06 200.16 116.56C199.81 117.01 200.14 117.93 200.14 117.93C200.14 117.93 205.73 132.05 212.06 139.16C217.87 145.68 224.47 145.26 224.47 145.26C224.76 145.26 227.15 145.26 227.45 145.26C227.45 145.26 228.36 145.15 228.82 144.61C229.24 144.12 229.22 143.2 229.22 143.2C229.22 143.2 229.17 138.87 231.03 138.23C232.86 137.61 235.22 142.41 237.72 144.26C239.6 145.66 241.04 145.36 241.04 145.36C241.71 145.35 247.05 145.27 247.72 145.26C247.72 145.26 251.21 145.02 249.55 142.06C249.42 141.82 248.59 139.87 244.59 135.86Z" id="d4uY2BQrFA"></path><path d="M244.59 235.86C240.4 231.67 240.96 232.35 246.01 225.1C249.08 220.69 250.31 217.99 249.92 216.84C249.56 215.74 247.3 216.03 247.3 216.03C246.55 216.03 240.54 216.07 239.79 216.07C239.79 216.07 239.23 215.99 238.81 216.26C238.41 216.52 238.15 217.13 238.15 217.13C238.15 217.13 236.96 220.55 235.37 223.45C232.02 229.58 230.68 229.91 230.14 229.53C228.87 228.64 229.18 225.96 229.18 224.06C229.18 218.12 230.02 215.64 227.56 215C226.74 214.79 226.14 214.65 224.05 214.62C221.36 214.59 219.09 214.63 217.81 215.31C216.95 215.76 216.29 216.77 216.7 216.83C217.19 216.9 218.32 217.15 218.91 218.03C219.69 219.16 219.66 221.7 219.66 221.7C219.66 221.7 220.1 228.69 218.62 229.56C217.61 230.16 216.22 228.94 213.23 223.38C211.7 220.53 210.55 217.38 210.55 217.38C210.55 217.38 210.33 216.79 209.93 216.48C209.45 216.1 208.77 215.98 208.77 215.98C208.06 215.98 202.34 216.02 201.63 216.02C201.63 216.02 200.56 216.06 200.16 216.56C199.81 217.01 200.14 217.93 200.14 217.93C200.14 217.93 205.73 232.05 212.06 239.16C217.87 245.68 224.47 245.26 224.47 245.26C224.76 245.26 227.15 245.26 227.45 245.26C227.45 245.26 228.36 245.15 228.82 244.61C229.24 244.12 229.22 243.2 229.22 243.2C229.22 243.2 229.17 238.87 231.03 238.23C232.86 237.61 235.22 242.41 237.72 244.26C239.6 245.66 241.04 245.36 241.04 245.36C241.71 245.35 247.05 245.27 247.72 245.26C247.72 245.26 251.21 245.02 249.55 242.06C249.42 241.82 248.59 239.87 244.59 235.86Z" id="d3AlqFtQi2"></path><path d="M49.78 224.85C48.77 225.47 45.62 226.15 43.89 225.51C43.8 225.1 43.71 224.71 43.61 224.36C42.29 219.5 37.76 215.59 33.01 216.06C33.4 215.91 33.79 215.76 34.17 215.63C34.7 215.45 37.76 214.95 37.28 213.86C36.87 212.91 33.13 214.58 32.42 214.8C33.35 214.45 34.89 213.85 35.06 212.78C33.63 212.98 32.23 213.65 31.15 214.63C31.54 214.21 31.84 213.7 31.9 213.15C28.09 215.58 25.87 220.48 24.07 225.23C22.66 223.86 21.41 222.78 20.29 222.18C17.14 220.49 13.37 218.73 7.46 216.54C7.28 218.49 8.43 221.09 11.74 222.82C11.02 222.73 9.71 222.94 8.66 223.19C9.09 225.43 10.48 227.28 14.26 228.17C12.53 228.29 11.64 228.68 10.83 229.53C11.62 231.08 13.54 232.92 16.99 232.54C13.15 234.19 15.42 237.26 18.54 236.8C13.22 242.3 4.82 241.9 0 237.3C12.59 254.45 39.96 247.44 44.03 230.92C47.09 230.94 48.89 229.86 50 228.66C48.24 228.96 45.69 228.65 44.33 228.09C47.14 227.86 49.05 226.58 49.78 224.85Z" id="c7y2akA3p"></path><path d="M117.8 216.57C117.46 216.57 115.78 216.57 112.76 216.57L112.76 224.99L117.8 224.99L117.8 250L128.16 250L128.16 224.99C132.33 224.99 134.65 224.99 135.11 224.99C135.11 224.99 135.76 220.95 136.07 216.54C135.17 216.54 128.2 216.54 128.2 216.54C128.2 216.54 128.2 211.64 128.2 210.78C128.2 209.92 129.33 208.76 130.44 208.76C131.56 208.76 133.91 208.76 136.09 208.76C136.09 207.62 136.09 203.66 136.09 200C133.18 200 129.87 200 128.41 200C117.54 200 117.8 208.43 117.8 209.68C117.8 210.94 117.8 215.19 117.8 216.57Z" id="c8PXbVKqiN"></path></defs><g><g><g><use xlink:href="#a7r5AOg1c" opacity="1" fill="#a07b50" fill-opacity="1"></use><g><use xlink:href="#a7r5AOg1c" opacity="1" fill-opacity="0" stroke="#000000" stroke-width="1" stroke-opacity="0"></use></g></g><g><use xlink:href="#ckaPEi1Bl" opacity="1" fill="#a07b50" fill-opacity="1"></use><g><use xlink:href="#ckaPEi1Bl" opacity="1" fill-opacity="0" stroke="#000000" stroke-width="1" stroke-opacity="0"></use></g></g><g><use xlink:href="#g3Ujua9ESM" opacity="1" fill="#a07b50" fill-opacity="1"></use><g><use xlink:href="#g3Ujua9ESM" opacity="1" fill-opacity="0" stroke="#000000" stroke-width="1" stroke-opacity="0"></use></g></g><g><use xlink:href="#d2TB6OZzHD" opacity="1" fill="#55412a" fill-opacity="1"></use><g><use xlink:href="#d2TB6OZzHD" opacity="1" fill-opacity="0" stroke="#000000" stroke-width="1" stroke-opacity="0"></use></g></g><g><use xlink:href="#c5zR1RUXxw" opacity="1" fill="#55412a" fill-opacity="1"></use><g><use xlink:href="#c5zR1RUXxw" opacity="1" fill-opacity="0" stroke="#000000" stroke-width="1" stroke-opacity="0"></use></g></g><g><use xlink:href="#d4uY2BQrFA" opacity="1" fill="#55412a" fill-opacity="1"></use><g><use xlink:href="#d4uY2BQrFA" opacity="1" fill-opacity="0" stroke="#000000" stroke-width="1" stroke-opacity="0"></use></g></g><g><use xlink:href="#d3AlqFtQi2" opacity="1" fill="#ffffff" fill-opacity="1"></use><g><use xlink:href="#d3AlqFtQi2" opacity="1" fill-opacity="0" stroke="#000000" stroke-width="1" stroke-opacity="0"></use></g></g><g><use xlink:href="#c7y2akA3p" opacity="1" fill="#ffffff" fill-opacity="1"></use><g><use xlink:href="#c7y2akA3p" opacity="1" fill-opacity="0" stroke="#000000" stroke-width="1" stroke-opacity="0"></use></g></g><g><use xlink:href="#c8PXbVKqiN" opacity="1" fill="#ffffff" fill-opacity="1"></use><g><use xlink:href="#c8PXbVKqiN" opacity="1" fill-opacity="0" stroke="#000000" stroke-width="1" stroke-opacity="0"></use></g></g></g></g></svg>