<?xml version="1.0" encoding="UTF-8" standalone="no"?>
<!DOCTYPE svg PUBLIC "-//W3C//DTD SVG 1.1//EN" "http://www.w3.org/Graphics/SVG/1.1/DTD/svg11.dtd">
<svg version="1.1" xmlns="http://www.w3.org/2000/svg" xmlns:xlink="http://www.w3.org/1999/xlink" preserveAspectRatio="xMidYMid meet" viewBox="0 0 250 250" width="1000" height="1000"><defs><path d="M22.55 31.58C22.55 31.82 22.55 33.74 22.55 33.98C22.55 34.18 22.72 34.34 22.92 34.34C23.12 34.34 23.29 34.18 23.29 33.98C23.29 33.74 23.29 31.82 23.29 31.58C24.83 31.4 26.03 30.08 26.03 28.5C26.03 26.78 24.63 25.39 22.92 25.39C21.21 25.39 19.81 26.78 19.81 28.5C19.81 30.08 21.01 31.4 22.55 31.58ZM22.92 26.12C24.23 26.12 25.29 27.19 25.29 28.5C25.29 29.81 24.23 30.87 22.92 30.87C21.61 30.87 20.55 29.81 20.55 28.5C20.55 27.19 21.61 26.12 22.92 26.12Z" id="hrGv8pfPK"></path><path d="M22.92 30.04C23.77 30.04 24.46 29.35 24.46 28.5C24.46 27.64 23.77 26.95 22.92 26.95C22.07 26.95 21.38 27.64 21.38 28.5C21.38 29.35 22.07 30.04 22.92 30.04ZM22.92 27.69C23.36 27.69 23.72 28.05 23.72 28.5C23.72 28.94 23.36 29.3 22.92 29.3C22.48 29.3 22.11 28.94 22.11 28.5C22.11 28.05 22.48 27.69 22.92 27.69Z" id="eOC98O9Y"></path><path d="M42.08 22.43C42.08 21.36 41.21 20.49 40.14 20.49C40.09 20.49 39.82 20.49 39.33 20.49C39.33 20.36 39.33 20.29 39.33 20.28C39.33 20.07 39.17 19.91 38.97 19.91C38.87 19.91 38.08 19.91 37.99 19.91C37.46 19.91 37.03 20.34 37.03 20.86C37.03 21.39 37.46 21.81 37.99 21.81C38.08 21.81 38.87 21.81 38.97 21.81C39.17 21.81 39.33 21.65 39.33 21.45C39.33 21.44 39.33 21.36 39.33 21.23C39.82 21.23 40.09 21.23 40.14 21.23C40.8 21.23 41.34 21.77 41.34 22.43C41.34 22.85 41.34 24.94 41.34 28.72C41.21 28.72 41.13 28.72 41.12 28.72C40.92 28.72 40.75 28.88 40.75 29.08C40.75 29.14 40.75 29.61 40.75 29.67C40.75 31.3 39.43 32.63 37.79 32.63C37.32 32.63 33.57 32.63 33.1 32.63C31.46 32.63 30.13 31.3 30.13 29.67C30.13 29.61 30.13 29.14 30.13 29.08C30.13 28.88 29.97 28.72 29.77 28.72C29.75 28.72 29.68 28.72 29.55 28.72C29.55 24.94 29.55 22.85 29.55 22.43C29.55 21.77 30.08 21.23 30.75 21.23C30.8 21.23 31.07 21.23 31.55 21.23C31.55 21.36 31.55 21.44 31.55 21.45C31.55 21.65 31.72 21.82 31.92 21.82C32.02 21.82 32.8 21.82 32.9 21.82C33.42 21.82 33.85 21.39 33.85 20.86C33.85 20.34 33.42 19.91 32.9 19.91C32.8 19.91 32.02 19.91 31.92 19.91C31.72 19.91 31.55 20.07 31.55 20.28C31.55 20.29 31.55 20.36 31.55 20.49C31.07 20.49 30.8 20.49 30.75 20.49C29.68 20.49 28.81 21.36 28.81 22.43C28.81 22.85 28.81 24.94 28.81 28.72C28.68 28.72 28.61 28.72 28.59 28.72C28.39 28.72 28.22 28.88 28.22 29.08C28.22 29.14 28.22 29.61 28.22 29.67C28.22 32.35 30.41 34.54 33.1 34.54C33.19 34.54 33.65 34.54 34.49 34.54C34.49 35.61 34.49 36.2 34.49 36.32C34.49 36.53 34.65 36.69 34.86 36.69C34.87 36.69 34.95 36.69 35.08 36.69C35.08 37.88 35.08 38.54 35.08 38.67C35.08 41.71 32.61 44.17 29.57 44.17C29.49 44.17 28.87 44.17 28.79 44.17C25.76 44.17 23.29 41.71 23.29 38.67C23.29 38.38 23.29 36.04 23.29 35.76C23.29 35.55 23.12 35.39 22.92 35.39C22.72 35.39 22.55 35.55 22.55 35.76C22.55 36.04 22.55 38.38 22.55 38.67C22.55 42.11 25.35 44.91 28.79 44.91C28.87 44.91 29.49 44.91 29.57 44.91C33.01 44.91 35.81 42.11 35.81 38.67C35.81 38.54 35.81 37.88 35.81 36.69C35.94 36.69 36.01 36.69 36.03 36.69C36.24 36.69 36.4 36.53 36.4 36.32C36.4 36.2 36.4 35.61 36.4 34.54C37.23 34.54 37.7 34.54 37.79 34.54C40.48 34.54 42.66 32.35 42.66 29.67C42.66 29.61 42.66 29.14 42.66 29.08C42.66 28.88 42.5 28.72 42.29 28.72C42.26 28.72 42.19 28.72 42.08 28.72C42.08 24.94 42.08 22.85 42.08 22.43ZM37.77 20.86C37.77 20.74 37.87 20.64 37.99 20.64C38.03 20.64 38.23 20.64 38.6 20.64C38.6 20.68 38.6 21.04 38.6 21.08C38.23 21.08 38.03 21.08 37.99 21.08C37.87 21.08 37.77 20.98 37.77 20.86ZM33.12 20.86C33.12 20.98 33.02 21.08 32.9 21.08C32.86 21.08 32.65 21.08 32.29 21.08C32.29 21.04 32.29 20.68 32.29 20.64C32.65 20.64 32.86 20.64 32.9 20.64C33.02 20.64 33.12 20.74 33.12 20.86ZM36.03 33.81C35.83 33.81 35.66 33.97 35.66 34.17C35.66 34.29 35.66 34.88 35.66 35.96C35.62 35.96 35.27 35.96 35.22 35.96C35.22 34.88 35.22 34.29 35.22 34.17C35.22 33.97 35.06 33.81 34.86 33.81C34.68 33.81 33.27 33.81 33.1 33.81C30.81 33.81 28.96 31.95 28.96 29.67C28.96 29.65 28.96 29.58 28.96 29.45C29 29.45 29.36 29.45 29.4 29.45C29.4 29.58 29.4 29.65 29.4 29.67C29.4 31.7 31.06 33.36 33.1 33.36C33.57 33.36 37.32 33.36 37.79 33.36C39.83 33.36 41.49 31.7 41.49 29.67C41.49 29.65 41.49 29.58 41.49 29.45C41.52 29.45 41.66 29.45 41.92 29.45C41.92 29.58 41.92 29.65 41.92 29.67C40.69 32.43 39.31 33.81 37.79 33.81C37.62 33.81 36.21 33.81 36.03 33.81Z" id="al7yqN0TV"></path><path d="M35.44 31.21C37.33 31.21 38.45 30.3 38.45 28.79C38.45 27.13 37.1 25.78 35.44 25.78C33.78 25.78 32.44 27.13 32.44 28.79C32.44 30.3 33.56 31.21 35.44 31.21ZM35.44 26.52C36.7 26.52 37.72 27.53 37.72 28.79C37.72 30.26 36.29 30.48 35.44 30.48C34.59 30.48 33.17 30.26 33.17 28.79C33.17 27.53 34.19 26.52 35.44 26.52Z" id="c2F33lKwl1"></path><path d="M33.97 25.63C34.66 25.63 35.22 25.07 35.22 24.38C35.22 23.77 34.72 22.84 33.97 22.84C33.23 22.84 32.73 23.77 32.73 24.38C32.73 25.07 33.29 25.63 33.97 25.63ZM33.97 23.58C34.2 23.58 34.49 24.04 34.49 24.38C34.49 24.67 34.26 24.9 33.97 24.9C33.69 24.9 33.46 24.67 33.46 24.38C33.46 24.04 33.76 23.58 33.97 23.58Z" id="aPlCwbr4r"></path><path d="M36.91 25.63C37.6 25.63 38.16 25.07 38.16 24.38C38.16 23.77 37.66 22.84 36.91 22.84C36.16 22.84 35.66 23.77 35.66 24.38C35.66 25.07 36.23 25.63 36.91 25.63ZM36.91 23.58C37.13 23.58 37.42 24.04 37.42 24.38C37.42 24.67 37.19 24.9 36.91 24.9C36.63 24.9 36.4 24.67 36.4 24.38C36.4 24.04 36.69 23.58 36.91 23.58Z" id="a2csqMD8Sm"></path><path d="M39.26 27.4C39.95 27.4 40.51 26.83 40.51 26.15C40.51 25.53 40.01 24.61 39.26 24.61C38.51 24.61 38.01 25.53 38.01 26.15C38.01 26.83 38.57 27.4 39.26 27.4ZM39.26 25.34C39.48 25.34 39.77 25.8 39.77 26.15C39.77 26.43 39.54 26.66 39.26 26.66C38.98 26.66 38.75 26.43 38.75 26.15C38.75 25.8 39.04 25.34 39.26 25.34Z" id="c6J84dlkK1"></path><path d="M31.63 27.4C32.32 27.4 32.88 26.83 32.88 26.15C32.88 25.53 32.38 24.61 31.63 24.61C30.88 24.61 30.38 25.53 30.38 26.15C30.38 26.83 30.94 27.4 31.63 27.4ZM31.63 25.34C31.85 25.34 32.14 25.8 32.14 26.15C32.14 26.43 31.91 26.66 31.63 26.66C31.34 26.66 31.11 26.43 31.11 26.15C31.11 25.8 31.41 25.34 31.63 25.34Z" id="a3uaQ2aVSV"></path><path d="M132.76 19.9C132.76 19.63 132.47 19.45 132.23 19.57C132.14 19.61 131.68 19.85 130.84 20.27C130.01 19.85 129.55 19.61 129.46 19.57C129.35 19.52 129.23 19.52 129.13 19.57C129.04 19.61 128.57 19.85 127.74 20.27C126.91 19.85 126.45 19.61 126.35 19.57C126.25 19.52 126.13 19.52 126.03 19.57C125.94 19.61 125.47 19.85 124.63 20.27C123.8 19.85 123.34 19.61 123.25 19.57C123.14 19.52 123.02 19.52 122.92 19.57C122.83 19.61 122.37 19.85 121.53 20.27C120.7 19.85 120.24 19.61 120.14 19.57C119.91 19.45 119.62 19.63 119.62 19.9C119.62 20.15 119.62 21.43 119.62 23.73C118.71 25.8 118.2 26.95 118.1 27.18C118.08 27.23 118.07 27.28 118.07 27.33C118.07 29.01 118.07 42.48 118.07 44.17C118.07 44.37 118.23 44.53 118.43 44.53C119.98 44.53 132.39 44.53 133.95 44.53C134.15 44.53 134.31 44.37 134.31 44.17C134.31 42.48 134.31 29.01 134.31 27.33C134.31 27.28 134.3 27.23 134.28 27.18C134.07 26.72 133.57 25.57 132.76 23.73C132.76 21.43 132.76 20.15 132.76 19.9ZM121.7 21.01C121.79 20.96 122.25 20.73 123.08 20.31C123.92 20.73 124.38 20.96 124.47 21.01C124.57 21.06 124.69 21.06 124.8 21.01C124.89 20.96 125.36 20.73 126.19 20.31C127.02 20.73 127.49 20.96 127.58 21.01C127.68 21.06 127.8 21.06 127.9 21.01C128 20.96 128.46 20.73 129.29 20.31C130.13 20.73 130.59 20.96 130.68 21.01C130.78 21.06 130.9 21.06 131.01 21.01C131.07 20.97 131.42 20.8 132.03 20.49C132.03 20.69 132.03 21.67 132.03 23.44L120.35 23.44C120.35 21.67 120.35 20.69 120.35 20.49C120.96 20.8 121.3 20.97 121.37 21.01C121.47 21.06 121.59 21.06 121.7 21.01ZM128.32 39.47L126.84 40.67L118.79 40.67L118.79 38.27L126.84 38.27L128.32 39.47ZM130.48 43.8L118.79 43.8C118.79 42.36 118.79 41.56 118.79 41.4C123.69 41.4 126.42 41.4 126.97 41.4C127.05 41.4 127.13 41.37 127.19 41.32C127.39 41.17 128.94 39.91 129.13 39.76C129.31 39.61 129.31 39.33 129.13 39.18C128.94 39.03 127.39 37.77 127.19 37.62C127.13 37.57 127.05 37.54 126.97 37.54C126.42 37.54 123.69 37.54 118.79 37.54C118.79 36.55 118.79 28.68 118.79 27.7C123.37 27.7 125.92 27.7 126.43 27.7C126.63 27.7 126.8 27.53 126.8 27.33C126.8 27.13 126.63 26.96 126.43 26.96C125.94 26.96 123.45 26.96 118.99 26.96C119.07 26.78 119.48 25.85 120.22 24.18L131.84 24.18C131.1 25.85 130.69 26.78 130.61 26.96C129.12 26.96 128.29 26.96 128.13 26.96C127.93 26.96 127.77 27.13 127.77 27.33C127.77 27.53 127.93 27.7 128.13 27.7C128.44 27.7 129.23 27.7 130.48 27.7C130.48 29.85 130.48 35.21 130.48 43.8ZM131.21 27.41L132.39 24.71L133.58 27.41L133.58 43.8L131.21 43.8L131.21 27.41Z" id="a9KoTm4Dwj"></path><path d="M124.63 36.71C126.51 36.71 127.62 35.8 127.62 34.28C127.62 32.62 126.28 31.27 124.63 31.27C122.99 31.27 121.65 32.62 121.65 34.28C121.65 35.8 122.77 36.71 124.63 36.71ZM124.63 32.01C125.88 32.01 126.89 33.03 126.89 34.28C126.89 35.75 125.48 35.97 124.63 35.97C123.79 35.97 122.38 35.75 122.38 34.28C122.38 33.03 123.39 32.01 124.63 32.01Z" id="e1JQ7BAgP6"></path><path d="M123.18 31.13C123.86 31.13 124.42 30.57 124.42 29.88C124.42 29.26 123.92 28.33 123.18 28.33C122.44 28.33 121.94 29.26 121.94 29.88C121.94 30.57 122.5 31.13 123.18 31.13ZM123.18 29.07C123.4 29.07 123.69 29.53 123.69 29.88C123.69 30.16 123.46 30.39 123.18 30.39C122.9 30.39 122.67 30.16 122.67 29.88C122.67 29.53 122.96 29.07 123.18 29.07Z" id="ec5AJnwSLb"></path><path d="M126.09 31.13C126.78 31.13 127.33 30.57 127.33 29.88C127.33 29.26 126.84 28.33 126.09 28.33C125.35 28.33 124.85 29.26 124.85 29.88C124.85 30.57 125.41 31.13 126.09 31.13ZM126.09 29.07C126.31 29.07 126.6 29.53 126.6 29.88C126.6 30.16 126.37 30.39 126.09 30.39C125.81 30.39 125.58 30.16 125.58 29.88C125.58 29.53 125.87 29.07 126.09 29.07Z" id="epaVFIhLU"></path><path d="M128.42 32.89C129.1 32.89 129.66 32.33 129.66 31.64C129.66 31.03 129.16 30.1 128.42 30.1C127.68 30.1 127.18 31.03 127.18 31.64C127.18 32.33 127.74 32.89 128.42 32.89ZM128.42 30.83C128.64 30.83 128.93 31.29 128.93 31.64C128.93 31.93 128.7 32.16 128.42 32.16C128.14 32.16 127.91 31.93 127.91 31.64C127.91 31.29 128.2 30.83 128.42 30.83Z" id="cxnlL7TJC"></path><path d="M120.85 32.89C121.54 32.89 122.09 32.33 122.09 31.64C122.09 31.03 121.6 30.1 120.85 30.1C120.11 30.1 119.62 31.03 119.62 31.64C119.62 32.33 120.17 32.89 120.85 32.89ZM120.85 30.83C121.07 30.83 121.36 31.29 121.36 31.64C121.36 31.93 121.13 32.16 120.85 32.16C120.57 32.16 120.35 31.93 120.35 31.64C120.35 31.29 120.64 30.83 120.85 30.83Z" id="c1zwVEJI9X"></path><path d="M119.62 42.6C119.62 42.8 119.78 42.97 119.98 42.97C120.14 42.97 121.38 42.97 121.53 42.97C121.73 42.97 121.9 42.8 121.9 42.6C121.9 42.4 121.73 42.23 121.53 42.23C121.22 42.23 120.14 42.23 119.98 42.23C119.78 42.23 119.62 42.4 119.62 42.6Z" id="a2R3BZXaHG"></path><path d="M122.72 42.6C122.72 42.8 122.88 42.97 123.08 42.97C123.43 42.97 126.23 42.97 126.58 42.97C126.78 42.97 126.94 42.8 126.94 42.6C126.94 42.4 126.78 42.23 126.58 42.23C125.88 42.23 123.43 42.23 123.08 42.23C122.88 42.23 122.72 42.4 122.72 42.6Z" id="alAwFkLHb"></path><path d="M119.62 39.47C119.62 39.67 119.78 39.84 119.98 39.84C120.25 39.84 122.42 39.84 122.7 39.84C122.9 39.84 123.06 39.67 123.06 39.47C123.06 39.27 122.9 39.1 122.7 39.1C122.15 39.1 120.25 39.1 119.98 39.1C119.78 39.1 119.62 39.27 119.62 39.47Z" id="bzkpZM4nm"></path><path d="M123.88 39.47C123.88 39.67 124.05 39.84 124.25 39.84C124.44 39.84 126 39.84 126.19 39.84C126.39 39.84 126.55 39.67 126.55 39.47C126.55 39.27 126.39 39.1 126.19 39.1C125.8 39.1 124.44 39.1 124.25 39.1C124.05 39.1 123.88 39.27 123.88 39.47Z" id="c45DEKx9t5"></path><path d="M219.51 34.71C221.39 34.71 222.51 33.81 222.51 32.29C222.51 30.64 221.16 29.29 219.51 29.29C217.85 29.29 216.5 30.64 216.5 32.29C216.5 33.81 217.63 34.71 219.51 34.71ZM219.51 30.02C220.76 30.02 221.78 31.04 221.78 32.29C221.78 33.76 220.35 33.98 219.51 33.98C218.66 33.98 217.24 33.76 217.24 32.29C217.24 31.04 218.25 30.02 219.51 30.02Z" id="alQJNfCce"></path><path d="M218.04 29.15C218.73 29.15 219.29 28.59 219.29 27.9C219.29 27.29 218.79 26.36 218.04 26.36C217.29 26.36 216.8 27.29 216.8 27.9C216.8 28.59 217.35 29.15 218.04 29.15ZM218.04 27.1C218.26 27.1 218.55 27.55 218.55 27.9C218.55 28.18 218.32 28.41 218.04 28.41C217.76 28.41 217.53 28.18 217.53 27.9C217.53 27.55 217.82 27.1 218.04 27.1Z" id="c1kYhJWFU"></path><path d="M220.97 29.15C221.66 29.15 222.21 28.59 222.21 27.9C222.21 27.29 221.72 26.36 220.97 26.36C220.22 26.36 219.72 27.29 219.72 27.9C219.72 28.59 220.28 29.15 220.97 29.15ZM220.97 27.1C221.19 27.1 221.48 27.55 221.48 27.9C221.48 28.18 221.25 28.41 220.97 28.41C220.69 28.41 220.46 28.18 220.46 27.9C220.46 27.55 220.75 27.1 220.97 27.1Z" id="b9X2BtDTs"></path><path d="M223.31 30.9C224 30.9 224.56 30.34 224.56 29.66C224.56 29.05 224.06 28.12 223.31 28.12C222.56 28.12 222.07 29.05 222.07 29.66C222.07 30.34 222.63 30.9 223.31 30.9ZM223.31 28.85C223.53 28.85 223.83 29.31 223.83 29.66C223.83 29.94 223.6 30.17 223.31 30.17C223.03 30.17 222.8 29.94 222.8 29.66C222.8 29.31 223.09 28.85 223.31 28.85Z" id="bpscv2TLe"></path><path d="M215.7 30.9C216.38 30.9 216.94 30.34 216.94 29.66C216.94 29.05 216.45 28.12 215.7 28.12C214.95 28.12 214.45 29.05 214.45 29.66C214.45 30.34 215.01 30.9 215.7 30.9ZM215.7 28.85C215.92 28.85 216.21 29.31 216.21 29.66C216.21 29.94 215.98 30.17 215.7 30.17C215.42 30.17 215.19 29.94 215.19 29.66C215.19 29.31 215.48 28.85 215.7 28.85Z" id="d30VCmaLI"></path><path d="M219.87 31.22C219.87 31.02 219.71 30.85 219.51 30.85C219.3 30.85 219.14 31.02 219.14 31.22C219.14 31.25 219.14 31.39 219.14 31.63C218.89 31.63 218.75 31.63 218.72 31.63C218.52 31.63 218.36 31.8 218.36 32C218.36 32.2 218.52 32.37 218.72 32.37C218.75 32.37 218.89 32.37 219.14 32.37C219.14 32.62 219.14 32.75 219.14 32.78C219.14 32.98 219.3 33.15 219.51 33.15C219.71 33.15 219.87 32.98 219.87 32.78C219.87 32.75 219.87 32.62 219.87 32.37C220.12 32.37 220.26 32.37 220.29 32.37C220.49 32.37 220.65 32.2 220.65 32C220.65 31.8 220.49 31.63 220.29 31.63C220.23 31.63 220.09 31.63 219.87 31.63C219.87 31.39 219.87 31.25 219.87 31.22Z" id="b1DRewLEAt"></path><path d="M212.63 22.78C210.53 24.88 209.38 27.67 209.38 30.63C209.38 33.6 210.53 36.39 212.63 38.49C214.73 40.59 217.52 41.74 220.48 41.74C220.68 41.74 220.85 41.58 220.85 41.38C220.85 41.17 220.68 41.01 220.48 41.01C217.71 41.01 215.11 39.93 213.15 37.97C211.19 36.01 210.11 33.4 210.11 30.63C210.11 27.86 211.19 25.26 213.15 23.3C215.11 21.34 217.71 20.26 220.48 20.26C221.58 20.26 222.66 20.43 223.68 20.76C223.87 20.82 224.08 20.72 224.14 20.53C224.21 20.34 224.1 20.13 223.91 20.07C222.81 19.71 221.65 19.53 220.48 19.53C217.52 19.53 214.73 20.69 212.63 22.78Z" id="b1W36abSIC"></path><path d="M232.48 28.06C232.38 28.15 231.56 28.87 231.46 28.96C231.11 26.63 230.01 24.46 228.33 22.78C227.53 21.98 226.63 21.31 225.64 20.79C225.46 20.7 225.24 20.77 225.14 20.95C225.05 21.12 225.12 21.35 225.3 21.44C226.22 21.93 227.07 22.55 227.82 23.3C229.57 25.05 230.6 27.27 230.81 29.72C230.84 30.01 231.2 30.16 231.42 29.97C231.5 29.89 231.93 29.52 232.69 28.85C232.77 28.95 233.41 29.68 233.49 29.77C231.79 31.27 230.84 32.1 230.65 32.26C230.42 32.46 230.07 32.46 229.84 32.26C229.65 32.1 228.7 31.27 226.99 29.77C227.07 29.68 227.72 28.95 227.8 28.85C228.5 29.47 228.89 29.81 228.97 29.88C229.21 30.09 229.61 29.88 229.57 29.56C229.03 24.95 225.12 21.48 220.48 21.48C215.44 21.48 211.33 25.59 211.33 30.63C211.33 35.68 215.44 39.79 220.48 39.79C220.68 39.79 220.85 39.63 220.85 39.42C220.85 39.22 220.68 39.06 220.48 39.06C215.84 39.06 212.06 35.28 212.06 30.63C212.06 25.99 215.84 22.21 220.48 22.21C224.4 22.21 227.76 24.91 228.66 28.64C228.6 28.58 228.07 28.12 228 28.06C227.85 27.93 227.62 27.95 227.49 28.1C227.36 28.24 226.33 29.42 226.2 29.57C226.07 29.72 226.08 29.95 226.24 30.08C226.55 30.36 229.05 32.54 229.36 32.82C229.86 33.25 230.63 33.25 231.13 32.82C231.44 32.54 233.94 30.36 234.25 30.08C234.4 29.95 234.42 29.72 234.29 29.57C234.03 29.27 233.13 28.24 233 28.1C232.87 27.95 232.63 27.93 232.48 28.06Z" id="dYpcvyWCf"></path><path d="M226.9 36.1C226.9 34.82 225.86 33.78 224.58 33.78C223.3 33.78 222.26 34.82 222.26 36.1C222.26 36.31 222.43 36.47 222.63 36.47C222.83 36.47 223 36.31 223 36.1C223 35.23 223.71 34.51 224.58 34.51C225.46 34.51 226.17 35.23 226.17 36.1C226.17 38.21 222.48 40.45 222.44 40.48C222.3 40.56 222.23 40.74 222.28 40.9C222.33 41.05 222.47 41.16 222.63 41.16C223.02 41.16 226.14 41.16 226.53 41.16C226.74 41.16 226.9 40.99 226.9 40.79C226.9 40.59 226.74 40.43 226.53 40.43C225.99 40.43 224.09 40.43 223.82 40.43C225.03 39.52 226.9 37.85 226.9 36.1Z" id="h6A5Gi2ax"></path><path d="M231.59 34.15C231.59 34 231.49 33.86 231.35 33.81C231.2 33.75 231.03 33.8 230.93 33.93C230.54 34.43 227.42 38.5 227.03 39.01C226.84 39.24 227.02 39.6 227.32 39.6C227.55 39.6 228.73 39.6 230.85 39.6C230.85 40.31 230.85 40.71 230.85 40.79C230.85 40.99 231.02 41.16 231.22 41.16C231.42 41.16 231.59 40.99 231.59 40.79C231.59 40.71 231.59 40.31 231.59 39.6C232.07 39.6 232.34 39.6 232.39 39.6C232.59 39.6 232.76 39.43 232.76 39.23C232.76 39.03 232.59 38.86 232.39 38.86C232.28 38.86 232.02 38.86 231.59 38.86C231.59 36.03 231.59 34.46 231.59 34.15ZM230.85 35.22L230.85 38.86L228.06 38.86L230.85 35.22Z" id="b2q9Wr8aPd"></path><path d="M22.27 128.86C22.27 129.1 22.27 131.01 22.27 131.25C22.27 131.46 22.44 131.62 22.64 131.62C22.84 131.62 23.01 131.46 23.01 131.25C23.01 131.01 23.01 129.1 23.01 128.86C24.55 128.67 25.75 127.36 25.75 125.77C25.75 124.06 24.35 122.66 22.64 122.66C20.93 122.66 19.53 124.06 19.53 125.77C19.53 127.36 20.73 128.67 22.27 128.86ZM22.64 123.4C23.95 123.4 25.01 124.46 25.01 125.77C25.01 127.08 23.95 128.15 22.64 128.15C21.33 128.15 20.27 127.08 20.27 125.77C20.27 124.46 21.33 123.4 22.64 123.4Z" id="ah70zc8lK"></path><path d="M22.64 127.31C23.49 127.31 24.18 126.62 24.18 125.77C24.18 124.92 23.49 124.23 22.64 124.23C21.79 124.23 21.1 124.92 21.1 125.77C21.1 126.62 21.79 127.31 22.64 127.31ZM22.64 124.97C23.08 124.97 23.45 125.33 23.45 125.77C23.45 126.22 23.08 126.58 22.64 126.58C22.2 126.58 21.83 126.22 21.83 125.77C21.83 125.33 22.2 124.97 22.64 124.97Z" id="c3aKhcRgXn"></path><path d="M41.8 119.71C41.8 118.64 40.93 117.77 39.86 117.77C39.81 117.77 39.54 117.77 39.06 117.77C39.06 117.64 39.06 117.57 39.06 117.56C39.06 117.35 38.89 117.19 38.69 117.19C38.59 117.19 37.81 117.19 37.71 117.19C37.18 117.19 36.75 117.62 36.75 118.14C36.75 118.67 37.18 119.09 37.71 119.09C37.81 119.09 38.59 119.09 38.69 119.09C38.89 119.09 39.06 118.93 39.06 118.73C39.06 118.71 39.06 118.64 39.06 118.51C39.54 118.51 39.81 118.51 39.86 118.51C40.52 118.51 41.06 119.05 41.06 119.71C41.06 120.12 41.06 122.22 41.06 125.99C40.93 125.99 40.85 125.99 40.84 125.99C40.64 125.99 40.47 126.16 40.47 126.36C40.47 126.42 40.47 126.89 40.47 126.95C40.47 128.58 39.15 129.91 37.51 129.91C37.05 129.91 33.29 129.91 32.82 129.91C31.19 129.91 29.86 128.58 29.86 126.95C29.86 126.89 29.86 126.42 29.86 126.36C29.86 126.16 29.69 125.99 29.49 125.99C29.47 125.99 29.4 125.99 29.27 125.99C29.27 122.22 29.27 120.12 29.27 119.71C29.27 119.05 29.8 118.51 30.47 118.51C30.52 118.51 30.79 118.51 31.28 118.51C31.28 118.64 31.28 118.71 31.28 118.73C31.28 118.93 31.44 119.09 31.64 119.09C31.74 119.09 32.52 119.09 32.62 119.09C33.15 119.09 33.57 118.67 33.57 118.14C33.57 117.62 33.15 117.19 32.62 117.19C32.52 117.19 31.74 117.19 31.64 117.19C31.44 117.19 31.28 117.35 31.28 117.56C31.28 117.57 31.28 117.64 31.28 117.77C30.79 117.77 30.52 117.77 30.47 117.77C29.4 117.77 28.54 118.64 28.54 119.71C28.54 120.12 28.54 122.22 28.54 125.99C28.4 125.99 28.33 125.99 28.31 125.99C28.11 125.99 27.95 126.16 27.95 126.36C27.95 126.42 27.95 126.89 27.95 126.95C27.95 129.63 30.13 131.81 32.82 131.81C32.91 131.81 33.37 131.81 34.21 131.81C34.21 132.89 34.21 133.48 34.21 133.6C34.21 133.8 34.37 133.97 34.58 133.97C34.59 133.97 34.67 133.97 34.8 133.97C34.8 135.16 34.8 135.82 34.8 135.95C34.8 138.98 32.33 141.45 29.3 141.45C29.22 141.45 28.59 141.45 28.51 141.45C25.48 141.45 23.01 138.98 23.01 135.95C23.01 135.66 23.01 133.32 23.01 133.03C23.01 132.83 22.84 132.67 22.64 132.67C22.44 132.67 22.27 132.83 22.27 133.03C22.27 133.32 22.27 135.66 22.27 135.95C22.27 139.39 25.07 142.19 28.51 142.19C28.59 142.19 29.22 142.19 29.3 142.19C32.73 142.19 35.53 139.39 35.53 135.95C35.53 135.82 35.53 135.16 35.53 133.97C35.66 133.97 35.74 133.97 35.75 133.97C35.96 133.97 36.12 133.8 36.12 133.6C36.12 133.48 36.12 132.89 36.12 131.81C36.95 131.81 37.42 131.81 37.51 131.81C40.2 131.81 42.38 129.63 42.38 126.95C42.38 126.89 42.38 126.42 42.38 126.36C42.38 126.16 42.22 125.99 42.01 125.99C41.98 125.99 41.91 125.99 41.8 125.99C41.8 122.22 41.8 120.12 41.8 119.71ZM37.49 118.14C37.49 118.02 37.59 117.92 37.71 117.92C37.75 117.92 37.95 117.92 38.32 117.92C38.32 117.96 38.32 118.32 38.32 118.36C37.95 118.36 37.75 118.36 37.71 118.36C37.59 118.36 37.49 118.26 37.49 118.14ZM32.84 118.14C32.84 118.26 32.74 118.36 32.62 118.36C32.58 118.36 32.37 118.36 32.01 118.36C32.01 118.32 32.01 117.96 32.01 117.92C32.37 117.92 32.58 117.92 32.62 117.92C32.74 117.92 32.84 118.02 32.84 118.14ZM35.75 131.08C35.55 131.08 35.38 131.24 35.38 131.45C35.38 131.57 35.38 132.16 35.38 133.23C35.34 133.23 34.99 133.23 34.94 133.23C34.94 132.16 34.94 131.57 34.94 131.45C34.94 131.24 34.78 131.08 34.58 131.08C34.4 131.08 32.99 131.08 32.82 131.08C30.54 131.08 28.68 129.23 28.68 126.95C28.68 126.93 28.68 126.86 28.68 126.72C28.73 126.72 29.08 126.72 29.12 126.72C29.12 126.86 29.12 126.93 29.12 126.95C29.12 128.98 30.78 130.64 32.82 130.64C33.29 130.64 37.05 130.64 37.51 130.64C39.55 130.64 41.21 128.98 41.21 126.95C41.21 126.93 41.21 126.86 41.21 126.72C41.24 126.72 41.38 126.72 41.65 126.72C41.65 126.86 41.65 126.93 41.65 126.95C40.41 129.7 39.04 131.08 37.51 131.08C37.34 131.08 35.93 131.08 35.75 131.08Z" id="d50e1js1Va"></path><path d="M35.17 128.49C37.05 128.49 38.17 127.58 38.17 126.06C38.17 124.41 36.82 123.06 35.17 123.06C33.5 123.06 32.16 124.41 32.16 126.06C32.16 127.58 33.28 128.49 35.17 128.49ZM35.17 123.79C36.42 123.79 37.44 124.81 37.44 126.06C37.44 127.54 36.01 127.75 35.17 127.75C34.31 127.75 32.89 127.54 32.89 126.06C32.89 124.81 33.91 123.79 35.17 123.79Z" id="blyi85Yko"></path><path d="M33.69 122.91C34.39 122.91 34.94 122.35 34.94 121.66C34.94 121.05 34.45 120.12 33.69 120.12C32.95 120.12 32.45 121.05 32.45 121.66C32.45 122.35 33.01 122.91 33.69 122.91ZM33.69 120.86C33.92 120.86 34.21 121.31 34.21 121.66C34.21 121.95 33.98 122.18 33.69 122.18C33.41 122.18 33.19 121.95 33.19 121.66C33.19 121.31 33.48 120.86 33.69 120.86Z" id="b3Mf8HPK0c"></path><path d="M36.63 122.91C37.32 122.91 37.88 122.35 37.88 121.66C37.88 121.05 37.38 120.12 36.63 120.12C35.88 120.12 35.38 121.05 35.38 121.66C35.38 122.35 35.95 122.91 36.63 122.91ZM36.63 120.86C36.85 120.86 37.15 121.31 37.15 121.66C37.15 121.95 36.91 122.18 36.63 122.18C36.35 122.18 36.12 121.95 36.12 121.66C36.12 121.31 36.41 120.86 36.63 120.86Z" id="djCPJCEOx"></path><path d="M38.98 124.67C39.67 124.67 40.23 124.11 40.23 123.42C40.23 122.81 39.73 121.88 38.98 121.88C38.23 121.88 37.74 122.81 37.74 123.42C37.74 124.11 38.29 124.67 38.98 124.67ZM38.98 122.62C39.2 122.62 39.49 123.08 39.49 123.42C39.49 123.71 39.26 123.94 38.98 123.94C38.7 123.94 38.47 123.71 38.47 123.42C38.47 123.08 38.76 122.62 38.98 122.62Z" id="dQqK7EBrr"></path><path d="M31.35 124.67C32.04 124.67 32.6 124.11 32.6 123.42C32.6 122.81 32.1 121.88 31.35 121.88C30.6 121.88 30.1 122.81 30.1 123.42C30.1 124.11 30.66 124.67 31.35 124.67ZM31.35 122.62C31.57 122.62 31.86 123.08 31.86 123.42C31.86 123.71 31.63 123.94 31.35 123.94C31.06 123.94 30.83 123.71 30.83 123.42C30.83 123.08 31.13 122.62 31.35 122.62Z" id="d64GZHQwX5"></path><path d="M132.75 117.55C132.75 117.29 132.46 117.11 132.22 117.23C132.13 117.27 131.67 117.51 130.83 117.93C130 117.51 129.54 117.27 129.45 117.23C129.34 117.17 129.22 117.17 129.12 117.23C129.03 117.27 128.56 117.51 127.73 117.93C126.9 117.51 126.44 117.27 126.35 117.23C126.25 117.17 126.13 117.17 126.02 117.23C125.93 117.27 125.47 117.51 124.63 117.93C123.8 117.51 123.34 117.27 123.25 117.23C123.14 117.17 123.02 117.17 122.92 117.23C122.83 117.27 122.37 117.51 121.53 117.93C120.7 117.51 120.24 117.27 120.14 117.23C119.91 117.11 119.62 117.29 119.62 117.55C119.62 117.81 119.62 119.09 119.62 121.39C118.71 123.46 118.2 124.61 118.1 124.84C118.08 124.89 118.07 124.94 118.07 124.99C118.07 126.67 118.07 140.14 118.07 141.82C118.07 142.02 118.23 142.19 118.43 142.19C119.98 142.19 132.38 142.19 133.94 142.19C134.14 142.19 134.3 142.02 134.3 141.82C134.3 140.14 134.3 126.67 134.3 124.99C134.3 124.94 134.29 124.89 134.27 124.84C134.06 124.38 133.56 123.23 132.75 121.39C132.75 119.09 132.75 117.81 132.75 117.55ZM121.7 118.66C121.79 118.62 122.25 118.38 123.08 117.96C123.92 118.38 124.38 118.62 124.47 118.66C124.57 118.72 124.69 118.72 124.8 118.66C124.89 118.62 125.35 118.38 126.19 117.96C127.02 118.38 127.48 118.62 127.57 118.66C127.67 118.72 127.79 118.72 127.89 118.66C127.99 118.62 128.45 118.38 129.28 117.96C130.12 118.38 130.58 118.62 130.67 118.66C130.77 118.72 130.89 118.72 131 118.66C131.06 118.63 131.41 118.46 132.02 118.15C132.02 118.35 132.02 119.33 132.02 121.1L120.35 121.1C120.35 119.33 120.35 118.35 120.35 118.15C120.96 118.46 121.3 118.63 121.37 118.66C121.47 118.72 121.59 118.72 121.7 118.66ZM128.31 137.12L126.83 138.32L118.79 138.32L118.79 135.92L126.83 135.92L128.31 137.12ZM130.47 141.45L118.79 141.45C118.79 140.02 118.79 139.22 118.79 139.06C123.69 139.06 126.42 139.06 126.96 139.06C127.04 139.06 127.12 139.03 127.18 138.97C127.38 138.82 128.93 137.57 129.12 137.41C129.3 137.26 129.3 136.98 129.12 136.84C128.93 136.68 127.38 135.43 127.18 135.27C127.12 135.22 127.04 135.19 126.96 135.19C126.42 135.19 123.69 135.19 118.79 135.19C118.79 134.21 118.79 126.34 118.79 125.36C123.37 125.36 125.92 125.36 126.43 125.36C126.63 125.36 126.79 125.19 126.79 124.99C126.79 124.79 126.63 124.62 126.43 124.62C125.93 124.62 123.45 124.62 118.99 124.62C119.07 124.44 119.48 123.51 120.22 121.83L131.83 121.83C131.09 123.51 130.68 124.44 130.6 124.62C129.11 124.62 128.28 124.62 128.12 124.62C127.92 124.62 127.76 124.79 127.76 124.99C127.76 125.19 127.92 125.36 128.12 125.36C128.43 125.36 129.22 125.36 130.47 125.36C130.47 127.5 130.47 132.87 130.47 141.45ZM131.2 125.07L132.38 122.37L133.57 125.07L133.57 141.45L131.2 141.45L131.2 125.07Z" id="k80y5J3UL"></path><path d="M124.63 134.36C126.5 134.36 127.61 133.45 127.61 131.94C127.61 130.28 126.28 128.93 124.63 128.93C122.99 128.93 121.65 130.28 121.65 131.94C121.65 133.45 122.77 134.36 124.63 134.36ZM124.63 129.66C125.88 129.66 126.89 130.68 126.89 131.94C126.89 133.41 125.48 133.62 124.63 133.62C123.79 133.62 122.38 133.41 122.38 131.94C122.38 130.68 123.39 129.66 124.63 129.66Z" id="bXHcusWfN"></path><path d="M123.18 128.78C123.86 128.78 124.42 128.22 124.42 127.53C124.42 126.92 123.92 125.99 123.18 125.99C122.44 125.99 121.94 126.92 121.94 127.53C121.94 128.22 122.5 128.78 123.18 128.78ZM123.18 126.73C123.4 126.73 123.69 127.19 123.69 127.53C123.69 127.82 123.46 128.05 123.18 128.05C122.9 128.05 122.67 127.82 122.67 127.53C122.67 127.19 122.96 126.73 123.18 126.73Z" id="a1GBv1QspE"></path><path d="M126.09 128.78C126.77 128.78 127.32 128.22 127.32 127.53C127.32 126.92 126.83 125.99 126.09 125.99C125.35 125.99 124.85 126.92 124.85 127.53C124.85 128.22 125.41 128.78 126.09 128.78ZM126.09 126.73C126.31 126.73 126.6 127.19 126.6 127.53C126.6 127.82 126.37 128.05 126.09 128.05C125.81 128.05 125.58 127.82 125.58 127.53C125.58 127.19 125.87 126.73 126.09 126.73Z" id="b16VgsT4XS"></path><path d="M128.41 130.54C129.09 130.54 129.65 129.98 129.65 129.29C129.65 128.68 129.15 127.75 128.41 127.75C127.67 127.75 127.17 128.68 127.17 129.29C127.17 129.98 127.73 130.54 128.41 130.54ZM128.41 128.49C128.63 128.49 128.92 128.95 128.92 129.29C128.92 129.58 128.69 129.81 128.41 129.81C128.13 129.81 127.9 129.58 127.9 129.29C127.9 128.95 128.19 128.49 128.41 128.49Z" id="b5VDEnUuB2"></path><path d="M120.85 130.54C121.54 130.54 122.09 129.98 122.09 129.29C122.09 128.68 121.6 127.75 120.85 127.75C120.11 127.75 119.62 128.68 119.62 129.29C119.62 129.98 120.17 130.54 120.85 130.54ZM120.85 128.49C121.07 128.49 121.36 128.95 121.36 129.29C121.36 129.58 121.13 129.81 120.85 129.81C120.57 129.81 120.35 129.58 120.35 129.29C120.35 128.95 120.64 128.49 120.85 128.49Z" id="aYn4kd5Ws"></path><path d="M119.62 140.25C119.62 140.46 119.78 140.62 119.98 140.62C120.14 140.62 121.38 140.62 121.53 140.62C121.73 140.62 121.9 140.46 121.9 140.25C121.9 140.05 121.73 139.89 121.53 139.89C121.22 139.89 120.14 139.89 119.98 139.89C119.78 139.89 119.62 140.05 119.62 140.25Z" id="a1WEakdSR"></path><path d="M122.72 140.25C122.72 140.46 122.88 140.62 123.08 140.62C123.43 140.62 126.22 140.62 126.57 140.62C126.77 140.62 126.94 140.46 126.94 140.25C126.94 140.05 126.77 139.89 126.57 139.89C125.88 139.89 123.43 139.89 123.08 139.89C122.88 139.89 122.72 140.05 122.72 140.25Z" id="d8MaBE8W6S"></path><path d="M119.62 137.12C119.62 137.33 119.78 137.49 119.98 137.49C120.25 137.49 122.42 137.49 122.7 137.49C122.9 137.49 123.06 137.33 123.06 137.12C123.06 136.92 122.9 136.76 122.7 136.76C122.15 136.76 120.25 136.76 119.98 136.76C119.78 136.76 119.62 136.92 119.62 137.12Z" id="dQxJFlDII"></path><path d="M123.88 137.12C123.88 137.33 124.05 137.49 124.25 137.49C124.44 137.49 125.99 137.49 126.19 137.49C126.39 137.49 126.55 137.33 126.55 137.12C126.55 136.92 126.39 136.76 126.19 136.76C125.8 136.76 124.44 136.76 124.25 136.76C124.05 136.76 123.88 136.92 123.88 137.12Z" id="a4FSS8EWc"></path><path d="M220.29 132.37C222.17 132.37 223.29 131.46 223.29 129.95C223.29 128.3 221.94 126.95 220.29 126.95C218.63 126.95 217.28 128.3 217.28 129.95C217.28 131.46 218.41 132.37 220.29 132.37ZM220.29 127.68C221.54 127.68 222.56 128.7 222.56 129.95C222.56 131.42 221.13 131.64 220.29 131.64C219.44 131.64 218.02 131.42 218.02 129.95C218.02 128.7 219.03 127.68 220.29 127.68Z" id="e8RtWfif2"></path><path d="M218.82 126.8C219.51 126.8 220.07 126.25 220.07 125.56C220.07 124.95 219.57 124.02 218.82 124.02C218.07 124.02 217.58 124.95 217.58 125.56C217.58 126.25 218.13 126.8 218.82 126.8ZM218.82 124.75C219.04 124.75 219.33 125.21 219.33 125.56C219.33 125.84 219.1 126.07 218.82 126.07C218.54 126.07 218.31 125.84 218.31 125.56C218.31 125.21 218.6 124.75 218.82 124.75Z" id="b3HM8ocRy6"></path><path d="M221.75 126.8C222.44 126.8 222.99 126.25 222.99 125.56C222.99 124.95 222.5 124.02 221.75 124.02C221 124.02 220.5 124.95 220.5 125.56C220.5 126.25 221.06 126.8 221.75 126.8ZM221.75 124.75C221.97 124.75 222.26 125.21 222.26 125.56C222.26 125.84 222.03 126.07 221.75 126.07C221.47 126.07 221.24 125.84 221.24 125.56C221.24 125.21 221.53 124.75 221.75 124.75Z" id="aEoXOYNtx"></path><path d="M224.09 128.56C224.78 128.56 225.34 128 225.34 127.32C225.34 126.7 224.84 125.78 224.09 125.78C223.34 125.78 222.85 126.7 222.85 127.32C222.85 128 223.41 128.56 224.09 128.56ZM224.09 126.51C224.31 126.51 224.61 126.97 224.61 127.32C224.61 127.6 224.38 127.83 224.09 127.83C223.81 127.83 223.58 127.6 223.58 127.32C223.58 126.97 223.87 126.51 224.09 126.51Z" id="cdVb35snA"></path><path d="M216.48 128.56C217.16 128.56 217.72 128 217.72 127.32C217.72 126.7 217.23 125.78 216.48 125.78C215.73 125.78 215.23 126.7 215.23 127.32C215.23 128 215.79 128.56 216.48 128.56ZM216.48 126.51C216.7 126.51 216.99 126.97 216.99 127.32C216.99 127.6 216.76 127.83 216.48 127.83C216.2 127.83 215.97 127.6 215.97 127.32C215.97 126.97 216.26 126.51 216.48 126.51Z" id="c1q6LBLZWJ"></path><path d="M220.65 128.88C220.65 128.68 220.49 128.51 220.29 128.51C220.08 128.51 219.92 128.68 219.92 128.88C219.92 128.91 219.92 129.04 219.92 129.29C219.67 129.29 219.53 129.29 219.5 129.29C219.3 129.29 219.14 129.46 219.14 129.66C219.14 129.86 219.3 130.02 219.5 130.02C219.53 130.02 219.67 130.02 219.92 130.02C219.92 130.27 219.92 130.41 219.92 130.44C219.92 130.64 220.08 130.81 220.29 130.81C220.49 130.81 220.65 130.64 220.65 130.44C220.65 130.41 220.65 130.27 220.65 130.02C220.9 130.02 221.04 130.02 221.07 130.02C221.27 130.02 221.43 129.86 221.43 129.66C221.43 129.46 221.27 129.29 221.07 129.29C221.01 129.29 220.87 129.29 220.65 129.29C220.65 129.04 220.65 128.91 220.65 128.88Z" id="h7XRWrsjlf"></path><path d="M213.41 120.44C211.31 122.54 210.16 125.33 210.16 128.29C210.16 131.26 211.31 134.05 213.41 136.14C215.51 138.24 218.3 139.4 221.26 139.4C221.46 139.4 221.63 139.23 221.63 139.03C221.63 138.83 221.46 138.66 221.26 138.66C218.49 138.66 215.89 137.59 213.93 135.63C211.97 133.67 210.89 131.06 210.89 128.29C210.89 125.52 211.97 122.92 213.93 120.96C215.89 119 218.49 117.92 221.26 117.92C222.36 117.92 223.44 118.09 224.46 118.42C224.65 118.48 224.86 118.38 224.92 118.19C224.99 118 224.88 117.79 224.69 117.72C223.59 117.37 222.43 117.19 221.26 117.19C218.3 117.19 215.51 118.34 213.41 120.44Z" id="b1f9elL5Zr"></path><path d="M233.26 125.72C233.16 125.81 232.34 126.53 232.24 126.62C231.89 124.29 230.79 122.12 229.11 120.44C228.31 119.64 227.41 118.97 226.42 118.45C226.24 118.36 226.02 118.43 225.92 118.61C225.83 118.78 225.9 119.01 226.08 119.1C227 119.59 227.85 120.21 228.6 120.96C230.35 122.71 231.38 124.93 231.59 127.38C231.62 127.67 231.98 127.82 232.2 127.62C232.28 127.55 232.71 127.18 233.47 126.51C233.55 126.6 234.19 127.34 234.27 127.43C232.57 128.93 231.62 129.76 231.43 129.92C231.2 130.12 230.85 130.12 230.62 129.92C230.43 129.76 229.48 128.93 227.77 127.43C227.85 127.34 228.5 126.6 228.58 126.51C229.28 127.13 229.67 127.47 229.75 127.53C229.99 127.75 230.39 127.54 230.35 127.22C229.81 122.61 225.9 119.14 221.26 119.14C216.22 119.14 212.11 123.25 212.11 128.29C212.11 133.34 216.22 137.44 221.26 137.44C221.46 137.44 221.63 137.28 221.63 137.08C221.63 136.88 221.46 136.71 221.26 136.71C216.62 136.71 212.84 132.93 212.84 128.29C212.84 123.65 216.62 119.87 221.26 119.87C225.18 119.87 228.54 122.57 229.44 126.3C229.38 126.24 228.85 125.78 228.78 125.72C228.63 125.59 228.4 125.6 228.27 125.75C228.14 125.9 227.11 127.08 226.98 127.22C226.85 127.38 226.86 127.61 227.02 127.74C227.33 128.01 229.83 130.2 230.14 130.47C230.64 130.91 231.41 130.91 231.91 130.47C232.22 130.2 234.72 128.01 235.03 127.74C235.18 127.61 235.2 127.38 235.07 127.22C234.81 126.93 233.91 125.9 233.78 125.75C233.65 125.6 233.41 125.59 233.26 125.72Z" id="b27PqlyhI8"></path><path d="M227.68 133.76C227.68 132.48 226.64 131.44 225.36 131.44C224.08 131.44 223.04 132.48 223.04 133.76C223.04 133.96 223.21 134.12 223.41 134.12C223.61 134.12 223.78 133.96 223.78 133.76C223.78 132.88 224.49 132.17 225.36 132.17C226.24 132.17 226.95 132.88 226.95 133.76C226.95 135.87 223.26 138.11 223.22 138.13C223.08 138.22 223.01 138.4 223.06 138.56C223.11 138.71 223.25 138.81 223.41 138.81C223.8 138.81 226.92 138.81 227.31 138.81C227.52 138.81 227.68 138.65 227.68 138.44C227.68 138.24 227.52 138.08 227.31 138.08C226.77 138.08 224.87 138.08 224.6 138.08C225.81 137.18 227.68 135.5 227.68 133.76Z" id="b1U2yzETVD"></path><path d="M232.37 131.81C232.37 131.66 232.27 131.52 232.13 131.46C231.98 131.41 231.81 131.46 231.71 131.58C231.32 132.09 228.2 136.15 227.81 136.66C227.62 136.9 227.8 137.25 228.1 137.25C228.33 137.25 229.51 137.25 231.63 137.25C231.63 137.97 231.63 138.36 231.63 138.44C231.63 138.65 231.8 138.81 232 138.81C232.2 138.81 232.37 138.65 232.37 138.44C232.37 138.36 232.37 137.97 232.37 137.25C232.85 137.25 233.12 137.25 233.17 137.25C233.37 137.25 233.54 137.08 233.54 136.88C233.54 136.68 233.37 136.52 233.17 136.52C233.06 136.52 232.8 136.52 232.37 136.52C232.37 133.69 232.37 132.12 232.37 131.81ZM231.63 132.88L231.63 136.52L228.84 136.52L231.63 132.88Z" id="i54DxQ7QVa"></path></defs><g><g><g><use xlink:href="#hrGv8pfPK" opacity="1" fill="#a07b50" fill-opacity="1"></use><g><use xlink:href="#hrGv8pfPK" opacity="1" fill-opacity="0" stroke="#000000" stroke-width="1" stroke-opacity="0"></use></g></g><g><use xlink:href="#eOC98O9Y" opacity="1" fill="#a07b50" fill-opacity="1"></use><g><use xlink:href="#eOC98O9Y" opacity="1" fill-opacity="0" stroke="#000000" stroke-width="1" stroke-opacity="0"></use></g></g><g><use xlink:href="#al7yqN0TV" opacity="1" fill="#a07b50" fill-opacity="1"></use><g><use xlink:href="#al7yqN0TV" opacity="1" fill-opacity="0" stroke="#000000" stroke-width="1" stroke-opacity="0"></use></g></g><g><use xlink:href="#c2F33lKwl1" opacity="1" fill="#a07b50" fill-opacity="1"></use><g><use xlink:href="#c2F33lKwl1" opacity="1" fill-opacity="0" stroke="#000000" stroke-width="1" stroke-opacity="0"></use></g></g><g><use xlink:href="#aPlCwbr4r" opacity="1" fill="#a07b50" fill-opacity="1"></use><g><use xlink:href="#aPlCwbr4r" opacity="1" fill-opacity="0" stroke="#000000" stroke-width="1" stroke-opacity="0"></use></g></g><g><use xlink:href="#a2csqMD8Sm" opacity="1" fill="#a07b50" fill-opacity="1"></use><g><use xlink:href="#a2csqMD8Sm" opacity="1" fill-opacity="0" stroke="#000000" stroke-width="1" stroke-opacity="0"></use></g></g><g><use xlink:href="#c6J84dlkK1" opacity="1" fill="#a07b50" fill-opacity="1"></use><g><use xlink:href="#c6J84dlkK1" opacity="1" fill-opacity="0" stroke="#000000" stroke-width="1" stroke-opacity="0"></use></g></g><g><use xlink:href="#a3uaQ2aVSV" opacity="1" fill="#a07b50" fill-opacity="1"></use><g><use xlink:href="#a3uaQ2aVSV" opacity="1" fill-opacity="0" stroke="#000000" stroke-width="1" stroke-opacity="0"></use></g></g><g><use xlink:href="#a9KoTm4Dwj" opacity="1" fill="#a07b50" fill-opacity="1"></use><g><use xlink:href="#a9KoTm4Dwj" opacity="1" fill-opacity="0" stroke="#000000" stroke-width="1" stroke-opacity="0"></use></g></g><g><use xlink:href="#e1JQ7BAgP6" opacity="1" fill="#a07b50" fill-opacity="1"></use><g><use xlink:href="#e1JQ7BAgP6" opacity="1" fill-opacity="0" stroke="#000000" stroke-width="1" stroke-opacity="0"></use></g></g><g><use xlink:href="#ec5AJnwSLb" opacity="1" fill="#a07b50" fill-opacity="1"></use><g><use xlink:href="#ec5AJnwSLb" opacity="1" fill-opacity="0" stroke="#000000" stroke-width="1" stroke-opacity="0"></use></g></g><g><use xlink:href="#epaVFIhLU" opacity="1" fill="#a07b50" fill-opacity="1"></use><g><use xlink:href="#epaVFIhLU" opacity="1" fill-opacity="0" stroke="#000000" stroke-width="1" stroke-opacity="0"></use></g></g><g><use xlink:href="#cxnlL7TJC" opacity="1" fill="#a07b50" fill-opacity="1"></use><g><use xlink:href="#cxnlL7TJC" opacity="1" fill-opacity="0" stroke="#000000" stroke-width="1" stroke-opacity="0"></use></g></g><g><use xlink:href="#c1zwVEJI9X" opacity="1" fill="#a07b50" fill-opacity="1"></use><g><use xlink:href="#c1zwVEJI9X" opacity="1" fill-opacity="0" stroke="#000000" stroke-width="1" stroke-opacity="0"></use></g></g><g><use xlink:href="#a2R3BZXaHG" opacity="1" fill="#a07b50" fill-opacity="1"></use><g><use xlink:href="#a2R3BZXaHG" opacity="1" fill-opacity="0" stroke="#000000" stroke-width="1" stroke-opacity="0"></use></g></g><g><use xlink:href="#alAwFkLHb" opacity="1" fill="#a07b50" fill-opacity="1"></use><g><use xlink:href="#alAwFkLHb" opacity="1" fill-opacity="0" stroke="#000000" stroke-width="1" stroke-opacity="0"></use></g></g><g><use xlink:href="#bzkpZM4nm" opacity="1" fill="#a07b50" fill-opacity="1"></use><g><use xlink:href="#bzkpZM4nm" opacity="1" fill-opacity="0" stroke="#000000" stroke-width="1" stroke-opacity="0"></use></g></g><g><use xlink:href="#c45DEKx9t5" opacity="1" fill="#a07b50" fill-opacity="1"></use><g><use xlink:href="#c45DEKx9t5" opacity="1" fill-opacity="0" stroke="#000000" stroke-width="1" stroke-opacity="0"></use></g></g><g><use xlink:href="#alQJNfCce" opacity="1" fill="#a07b50" fill-opacity="1"></use><g><use xlink:href="#alQJNfCce" opacity="1" fill-opacity="0" stroke="#000000" stroke-width="1" stroke-opacity="0"></use></g></g><g><use xlink:href="#c1kYhJWFU" opacity="1" fill="#a07b50" fill-opacity="1"></use><g><use xlink:href="#c1kYhJWFU" opacity="1" fill-opacity="0" stroke="#000000" stroke-width="1" stroke-opacity="0"></use></g></g><g><use xlink:href="#b9X2BtDTs" opacity="1" fill="#a07b50" fill-opacity="1"></use><g><use xlink:href="#b9X2BtDTs" opacity="1" fill-opacity="0" stroke="#000000" stroke-width="1" stroke-opacity="0"></use></g></g><g><use xlink:href="#bpscv2TLe" opacity="1" fill="#a07b50" fill-opacity="1"></use><g><use xlink:href="#bpscv2TLe" opacity="1" fill-opacity="0" stroke="#000000" stroke-width="1" stroke-opacity="0"></use></g></g><g><use xlink:href="#d30VCmaLI" opacity="1" fill="#a07b50" fill-opacity="1"></use><g><use xlink:href="#d30VCmaLI" opacity="1" fill-opacity="0" stroke="#000000" stroke-width="1" stroke-opacity="0"></use></g></g><g><use xlink:href="#b1DRewLEAt" opacity="1" fill="#a07b50" fill-opacity="1"></use><g><use xlink:href="#b1DRewLEAt" opacity="1" fill-opacity="0" stroke="#000000" stroke-width="1" stroke-opacity="0"></use></g></g><g><use xlink:href="#b1W36abSIC" opacity="1" fill="#a07b50" fill-opacity="1"></use><g><use xlink:href="#b1W36abSIC" opacity="1" fill-opacity="0" stroke="#000000" stroke-width="1" stroke-opacity="0"></use></g></g><g><use xlink:href="#dYpcvyWCf" opacity="1" fill="#a07b50" fill-opacity="1"></use><g><use xlink:href="#dYpcvyWCf" opacity="1" fill-opacity="0" stroke="#000000" stroke-width="1" stroke-opacity="0"></use></g></g><g><use xlink:href="#h6A5Gi2ax" opacity="1" fill="#a07b50" fill-opacity="1"></use><g><use xlink:href="#h6A5Gi2ax" opacity="1" fill-opacity="0" stroke="#000000" stroke-width="1" stroke-opacity="0"></use></g></g><g><use xlink:href="#b2q9Wr8aPd" opacity="1" fill="#a07b50" fill-opacity="1"></use><g><use xlink:href="#b2q9Wr8aPd" opacity="1" fill-opacity="0" stroke="#000000" stroke-width="1" stroke-opacity="0"></use></g></g><g><use xlink:href="#ah70zc8lK" opacity="1" fill="#ffffff" fill-opacity="1"></use><g><use xlink:href="#ah70zc8lK" opacity="1" fill-opacity="0" stroke="#000000" stroke-width="1" stroke-opacity="0"></use></g></g><g><use xlink:href="#c3aKhcRgXn" opacity="1" fill="#ffffff" fill-opacity="1"></use><g><use xlink:href="#c3aKhcRgXn" opacity="1" fill-opacity="0" stroke="#000000" stroke-width="1" stroke-opacity="0"></use></g></g><g><use xlink:href="#d50e1js1Va" opacity="1" fill="#ffffff" fill-opacity="1"></use><g><use xlink:href="#d50e1js1Va" opacity="1" fill-opacity="0" stroke="#000000" stroke-width="1" stroke-opacity="0"></use></g></g><g><use xlink:href="#blyi85Yko" opacity="1" fill="#ffffff" fill-opacity="1"></use><g><use xlink:href="#blyi85Yko" opacity="1" fill-opacity="0" stroke="#000000" stroke-width="1" stroke-opacity="0"></use></g></g><g><use xlink:href="#b3Mf8HPK0c" opacity="1" fill="#ffffff" fill-opacity="1"></use><g><use xlink:href="#b3Mf8HPK0c" opacity="1" fill-opacity="0" stroke="#000000" stroke-width="1" stroke-opacity="0"></use></g></g><g><use xlink:href="#djCPJCEOx" opacity="1" fill="#ffffff" fill-opacity="1"></use><g><use xlink:href="#djCPJCEOx" opacity="1" fill-opacity="0" stroke="#000000" stroke-width="1" stroke-opacity="0"></use></g></g><g><use xlink:href="#dQqK7EBrr" opacity="1" fill="#ffffff" fill-opacity="1"></use><g><use xlink:href="#dQqK7EBrr" opacity="1" fill-opacity="0" stroke="#000000" stroke-width="1" stroke-opacity="0"></use></g></g><g><use xlink:href="#d64GZHQwX5" opacity="1" fill="#ffffff" fill-opacity="1"></use><g><use xlink:href="#d64GZHQwX5" opacity="1" fill-opacity="0" stroke="#000000" stroke-width="1" stroke-opacity="0"></use></g></g><g><use xlink:href="#k80y5J3UL" opacity="1" fill="#ffffff" fill-opacity="1"></use><g><use xlink:href="#k80y5J3UL" opacity="1" fill-opacity="0" stroke="#000000" stroke-width="1" stroke-opacity="0"></use></g></g><g><use xlink:href="#bXHcusWfN" opacity="1" fill="#ffffff" fill-opacity="1"></use><g><use xlink:href="#bXHcusWfN" opacity="1" fill-opacity="0" stroke="#000000" stroke-width="1" stroke-opacity="0"></use></g></g><g><use xlink:href="#a1GBv1QspE" opacity="1" fill="#ffffff" fill-opacity="1"></use><g><use xlink:href="#a1GBv1QspE" opacity="1" fill-opacity="0" stroke="#000000" stroke-width="1" stroke-opacity="0"></use></g></g><g><use xlink:href="#b16VgsT4XS" opacity="1" fill="#ffffff" fill-opacity="1"></use><g><use xlink:href="#b16VgsT4XS" opacity="1" fill-opacity="0" stroke="#000000" stroke-width="1" stroke-opacity="0"></use></g></g><g><use xlink:href="#b5VDEnUuB2" opacity="1" fill="#ffffff" fill-opacity="1"></use><g><use xlink:href="#b5VDEnUuB2" opacity="1" fill-opacity="0" stroke="#000000" stroke-width="1" stroke-opacity="0"></use></g></g><g><use xlink:href="#aYn4kd5Ws" opacity="1" fill="#ffffff" fill-opacity="1"></use><g><use xlink:href="#aYn4kd5Ws" opacity="1" fill-opacity="0" stroke="#000000" stroke-width="1" stroke-opacity="0"></use></g></g><g><use xlink:href="#a1WEakdSR" opacity="1" fill="#ffffff" fill-opacity="1"></use><g><use xlink:href="#a1WEakdSR" opacity="1" fill-opacity="0" stroke="#000000" stroke-width="1" stroke-opacity="0"></use></g></g><g><use xlink:href="#d8MaBE8W6S" opacity="1" fill="#ffffff" fill-opacity="1"></use><g><use xlink:href="#d8MaBE8W6S" opacity="1" fill-opacity="0" stroke="#000000" stroke-width="1" stroke-opacity="0"></use></g></g><g><use xlink:href="#dQxJFlDII" opacity="1" fill="#ffffff" fill-opacity="1"></use><g><use xlink:href="#dQxJFlDII" opacity="1" fill-opacity="0" stroke="#000000" stroke-width="1" stroke-opacity="0"></use></g></g><g><use xlink:href="#a4FSS8EWc" opacity="1" fill="#ffffff" fill-opacity="1"></use><g><use xlink:href="#a4FSS8EWc" opacity="1" fill-opacity="0" stroke="#000000" stroke-width="1" stroke-opacity="0"></use></g></g><g><use xlink:href="#e8RtWfif2" opacity="1" fill="#ffffff" fill-opacity="1"></use><g><use xlink:href="#e8RtWfif2" opacity="1" fill-opacity="0" stroke="#000000" stroke-width="1" stroke-opacity="0"></use></g></g><g><use xlink:href="#b3HM8ocRy6" opacity="1" fill="#ffffff" fill-opacity="1"></use><g><use xlink:href="#b3HM8ocRy6" opacity="1" fill-opacity="0" stroke="#000000" stroke-width="1" stroke-opacity="0"></use></g></g><g><use xlink:href="#aEoXOYNtx" opacity="1" fill="#ffffff" fill-opacity="1"></use><g><use xlink:href="#aEoXOYNtx" opacity="1" fill-opacity="0" stroke="#000000" stroke-width="1" stroke-opacity="0"></use></g></g><g><use xlink:href="#cdVb35snA" opacity="1" fill="#ffffff" fill-opacity="1"></use><g><use xlink:href="#cdVb35snA" opacity="1" fill-opacity="0" stroke="#000000" stroke-width="1" stroke-opacity="0"></use></g></g><g><use xlink:href="#c1q6LBLZWJ" opacity="1" fill="#ffffff" fill-opacity="1"></use><g><use xlink:href="#c1q6LBLZWJ" opacity="1" fill-opacity="0" stroke="#000000" stroke-width="1" stroke-opacity="0"></use></g></g><g><use xlink:href="#h7XRWrsjlf" opacity="1" fill="#ffffff" fill-opacity="1"></use><g><use xlink:href="#h7XRWrsjlf" opacity="1" fill-opacity="0" stroke="#000000" stroke-width="1" stroke-opacity="0"></use></g></g><g><use xlink:href="#b1f9elL5Zr" opacity="1" fill="#ffffff" fill-opacity="1"></use><g><use xlink:href="#b1f9elL5Zr" opacity="1" fill-opacity="0" stroke="#000000" stroke-width="1" stroke-opacity="0"></use></g></g><g><use xlink:href="#b27PqlyhI8" opacity="1" fill="#ffffff" fill-opacity="1"></use><g><use xlink:href="#b27PqlyhI8" opacity="1" fill-opacity="0" stroke="#000000" stroke-width="1" stroke-opacity="0"></use></g></g><g><use xlink:href="#b1U2yzETVD" opacity="1" fill="#ffffff" fill-opacity="1"></use><g><use xlink:href="#b1U2yzETVD" opacity="1" fill-opacity="0" stroke="#000000" stroke-width="1" stroke-opacity="0"></use></g></g><g><use xlink:href="#i54DxQ7QVa" opacity="1" fill="#ffffff" fill-opacity="1"></use><g><use xlink:href="#i54DxQ7QVa" opacity="1" fill-opacity="0" stroke="#000000" stroke-width="1" stroke-opacity="0"></use></g></g></g></g></svg>